<?xml version="1.0" encoding="UTF-8"?>
<svg width="39px" height="39px" viewBox="0 0 39 39" version="1.1" xmlns="http://www.w3.org/2000/svg" xmlns:xlink="http://www.w3.org/1999/xlink">
    <title>Logo</title>
    <g id="Symbols" stroke="none" stroke-width="1" fill="none" fill-rule="evenodd">
        <g id="Logo/Servers-com/Short" fill="#EF3340" fill-rule="nonzero">
            <g id="Logo">
                <path d="M19.4999385,0 C30.2694553,0 39,8.73047588 39,19.5 C39,30.2695241 30.2694553,39 19.4999385,39 C8.7304217,39 0,30.2695241 0,19.5 C0,8.73047588 8.7304217,0 19.4999385,0 Z M29,8 L12,8 L11.8171509,8.00481345 C10.1875409,8.09112665 9,9.32934456 9,11 L9,11 L9,17 L9.00484868,17.1838002 C9.0917842,18.821336 10.3385502,20 12,20 L12,20 L26.5,20 L26.5711401,20.0031461 C27.088843,20.0475207 28,20.5681818 28,22 L28,22 L28,26 L27.9939425,26.1983941 C27.910124,27.5444215 26.9772727,28 26.5,28 L26.5,28 L11,28 L10.8871494,28.0065955 C10.3705617,28.0675568 10,28.5427108 10,29.0810439 L10,29.0810439 L10,30 L27,30 L27.1828496,29.9951486 C28.8124686,29.9081659 30.0001359,28.6607506 30.0001359,27 L30.0001359,27 L30.0001359,21 L29.9963562,20.8143698 C29.9183204,19.1615844 28.6613332,18 27,18 L27,18 L12.5,18 L12.4288599,17.9968539 C11.911157,17.9524793 11,17.4318182 11,16 L11,16 L11,12 L11.0060575,11.8016059 C11.089876,10.4555785 12.0227273,10 12.5,10 L12.5,10 L27.9606261,10.0359903 L28.0739783,10.029856 C28.5951392,9.97311255 29,9.52987406 29,9 L29,9 L29,8 Z M24.9289439,22 L12.0710549,22 C11.4799262,22 11,22.4471289 11,22.9997977 L11,22.9997977 L11,25.0002023 C11,25.552062 11.47893,26 12.0710549,26 L12.0710549,26 L24.9289439,26 C25.5210688,26 26.0008705,25.5529867 26,25.0002023 L26,25.0002023 L26,22.9997977 C26,22.447938 25.5210688,22 24.9289439,22 L24.9289439,22 Z M26.9289439,12 L14.0710549,12 C13.4799262,12 13,12.4471159 13,12.9997688 L13,12.9997688 L13,15.0002312 C13,15.5519593 13.47893,16 14.0710549,16 L14.0710549,16 L26.9289439,16 C27.5210688,16 28.0008705,15.5582014 28,15.0002312 L28,15.0002312 L28,12.9997688 C28,12.4480407 27.5210688,12 26.9289439,12 L26.9289439,12 Z" id="Path-3"></path>
            </g>
        </g>
    </g>
</svg>